<svg version="1.1" xmlns="http://www.w3.org/2000/svg" viewBox="0 0 164.9727581224688 94.76069714083178" width="164.9727581224688" height="94.76069714083178"><!-- svg-source:excalidraw --><metadata></metadata><defs><style class="style-fonts">
</style></defs><rect x="0" y="0" width="164.9727581224688" height="94.76069714083178" fill="#ffffff"></rect><g stroke-linecap="round" transform="translate(21.896399919924534 33.093005926807336) rotate(0 25.775529155617733 25.833845607012222)"><path d="M26.68 -0.26 C32.04 -0.26, 39.48 3.03, 43.49 7.05 C47.5 11.06, 50.06 18.19, 50.74 23.81 C51.43 29.43, 50.47 36.39, 47.59 40.74 C44.71 45.09, 38.9 48.6, 33.46 49.91 C28.01 51.22, 20.08 50.63, 14.92 48.6 C9.76 46.58, 4.87 42.56, 2.49 37.74 C0.11 32.93, -0.77 25.04, 0.63 19.73 C2.02 14.41, 5.04 8.7, 10.84 5.84 C16.64 2.98, 30.04 2.5, 35.44 2.57 C40.84 2.63, 43.43 5.89, 43.23 6.22 M26.59 0.08 C32.09 -0.02, 39.33 3.33, 43.42 6.95 C47.51 10.57, 50.46 16.18, 51.12 21.79 C51.78 27.4, 50.1 35.75, 47.39 40.6 C44.68 45.46, 39.84 49.28, 34.84 50.91 C29.85 52.54, 22.64 52.7, 17.41 50.38 C12.18 48.07, 6.51 41.94, 3.46 37.01 C0.42 32.07, -1.72 25.95, -0.84 20.76 C0.05 15.57, 4.41 9.54, 8.77 5.86 C13.12 2.19, 22.52 -0.53, 25.29 -1.29 C28.06 -2.05, 25.05 0.62, 25.39 1.32" stroke="#1e1e1e" stroke-width="4" fill="none"></path></g><g transform="translate(10 27.84459537514033) rotate(0 72.4863790612344 7.872617078819076)" stroke="none"><path fill="#1e1e1e" d="M 1.28,-1.44 Q 1.28,-1.44 2.75,-0.06 4.22,1.31 6.44,3.69 8.66,6.06 11.43,8.87 14.20,11.67 16.88,14.09 19.57,16.51 22.00,18.47 24.42,20.44 26.21,21.78 28.00,23.11 29.21,23.82 30.43,24.52 31.42,25.10 32.40,25.67 33.21,26.44 34.01,27.21 35.13,28.15 36.25,29.10 37.22,30.23 38.19,31.36 37.10,31.21 36.00,31.07 38.40,29.45 40.80,27.83 45.01,25.76 49.21,23.69 54.69,21.07 60.17,18.45 66.95,15.00 73.73,11.56 80.87,7.64 88.01,3.73 94.97,0.09 101.93,-3.54 107.51,-6.41 113.08,-9.28 117.95,-11.35 122.82,-13.43 127.26,-14.78 131.69,-16.14 134.86,-16.92 138.03,-17.69 141.32,-18.54 144.62,-19.40 144.87,-19.41 145.13,-19.43 145.38,-19.36 145.63,-19.29 145.84,-19.15 146.06,-19.01 146.22,-18.80 146.37,-18.60 146.46,-18.35 146.54,-18.11 146.54,-17.85 146.55,-17.59 146.46,-17.35 146.38,-17.10 146.23,-16.89 146.07,-16.69 145.86,-16.54 145.65,-16.39 145.40,-16.32 145.15,-16.25 144.89,-16.27 144.63,-16.28 144.39,-16.37 144.15,-16.47 143.95,-16.63 143.76,-16.80 143.62,-17.02 143.49,-17.24 143.43,-17.49 143.37,-17.74 143.40,-18.00 143.43,-18.26 143.53,-18.49 143.64,-18.73 143.82,-18.92 143.99,-19.11 144.22,-19.23 144.45,-19.35 144.70,-19.39 144.96,-19.44 145.21,-19.40 145.47,-19.36 145.70,-19.24 145.93,-19.12 146.11,-18.93 146.28,-18.74 146.39,-18.51 146.50,-18.28 146.53,-18.02 146.56,-17.76 146.51,-17.51 146.45,-17.26 146.32,-17.03 146.19,-16.81 145.99,-16.64 145.80,-16.48 145.56,-16.38 145.32,-16.28 145.32,-16.28 145.32,-16.28 142.01,-15.64 138.70,-15.00 135.61,-14.22 132.53,-13.45 128.25,-12.11 123.97,-10.76 119.22,-8.69 114.47,-6.62 108.94,-3.69 103.40,-0.76 96.52,2.93 89.64,6.64 82.52,10.69 75.40,14.74 68.67,18.36 61.94,21.98 56.62,24.78 51.30,27.58 47.28,29.90 43.27,32.22 41.41,33.47 39.54,34.72 38.24,35.30 36.94,35.87 35.12,34.93 33.31,33.98 32.44,32.71 31.57,31.44 30.86,30.40 30.15,29.36 29.37,28.29 28.60,27.21 27.46,26.30 26.32,25.40 24.46,24.06 22.61,22.72 20.09,20.75 17.57,18.77 14.77,16.35 11.98,13.93 9.11,11.17 6.24,8.41 4.02,6.23 1.80,4.04 0.26,2.74 -1.28,1.44 -1.43,1.27 -1.59,1.09 -1.70,0.88 -1.80,0.68 -1.86,0.45 -1.92,0.22 -1.92,-0.00 -1.91,-0.23 -1.86,-0.46 -1.80,-0.68 -1.69,-0.89 -1.59,-1.10 -1.43,-1.27 -1.28,-1.45 -1.08,-1.58 -0.89,-1.71 -0.67,-1.79 -0.45,-1.87 -0.22,-1.90 0.00,-1.93 0.23,-1.90 0.46,-1.87 0.68,-1.79 0.90,-1.71 1.09,-1.57 1.28,-1.44 1.28,-1.44 L 1.28,-1.44 Z"></path></g></svg>